<svg t="1697447348388" class="icon" viewBox="0 0 1024 1024" version="1.1" xmlns="http://www.w3.org/2000/svg" p-id="7761" width="200" height="200"><path d="M609.792 923.136c-36.352 25.088-77.824 40.96-121.856 45.568V270.848C619.52 284.672 727.04 399.872 752.64 549.376c8.192-1.024 16.896-1.536 25.088-1.536 10.24 0 19.968 0.512 29.696 2.048-6.656-43.008-19.456-84.992-37.888-124.416 57.856-16.896 97.28-69.632 97.28-129.024 0-14.848-12.288-27.136-27.136-27.136s-27.136 12.288-27.136 27.136c0 40.96-30.72 75.264-70.656 80.384-14.336-21.504-30.72-41.984-49.152-60.416 23.552-73.728 10.24-154.112-35.84-216.576C611.84 36.864 538.624 0 460.8 0 382.976 0 309.76 36.864 264.192 99.328c-46.08 62.464-59.392 142.848-35.84 216.576-18.432 18.432-34.816 38.912-49.152 60.416-40.448-5.12-70.656-39.424-70.656-80.384 0-14.848-12.288-27.136-27.136-27.136s-27.136 12.288-27.136 27.136c0 60.928 40.96 112.64 97.28 129.024a441.9072 441.9072 0 0 0-42.496 167.424h-81.92c-14.848 0-27.136 12.288-27.136 27.136s12.288 27.136 27.136 27.136h81.92c3.072 57.856 17.408 114.688 42.496 167.424-57.856 16.896-97.28 69.632-97.28 129.024 0 14.848 12.288 27.136 27.136 27.136s27.136-12.288 27.136-27.136c0-40.96 30.72-75.264 70.656-80.384 9.216 14.336 19.968 28.16 30.72 40.96C276.992 981.504 366.08 1024 460.8 1024c69.12 0 134.656-22.528 190.976-64.512-15.36-10.24-29.184-22.528-41.984-36.352z m-176.128 45.568c-151.552-16.384-270.848-166.4-270.848-348.672 0-182.272 119.296-332.8 270.848-348.672v697.344zM274.432 276.48c-10.24-55.296 4.608-111.616 40.96-154.624 35.84-43.008 89.6-68.096 145.92-68.096s109.568 25.088 145.92 68.096c35.84 43.008 51.2 99.84 40.96 154.624-55.296-39.936-119.296-60.928-186.88-60.928S329.728 237.056 274.432 276.48zM1008.64 913.408L945.664 849.92c-1.536-1.536-3.072-2.56-4.608-4.096-0.512-0.512-1.024-0.512-1.536-1.024-1.024-1.024-2.56-1.536-3.584-2.56-0.512-0.512-1.024-0.512-1.536-1.024-1.536-0.512-2.56-1.536-4.096-2.048-0.512 0-1.024-0.512-1.536-0.512-2.048-1.024-3.584-1.536-5.632-2.048 1.536-3.584 3.072-7.168 4.608-11.264 1.024-3.584 2.56-7.168 3.072-10.752 0-0.512 0.512-1.024 0.512-1.536 2.048-7.168 3.584-14.848 4.608-22.528 0-0.512 0-1.536 0.512-2.048 0.512-3.072 0.512-6.656 1.024-9.728v-1.536c0-3.584 0.512-7.68 0.512-11.264v-2.048c0-3.072 0-6.144-0.512-9.216v-3.072c-0.512-3.584-0.512-7.68-1.536-11.264-14.848-97.28-106.496-164.352-204.8-148.992-98.304 14.848-165.376 105.984-150.528 203.264 14.848 97.28 106.496 164.352 204.8 148.992 4.096-0.512 8.192-1.536 12.288-2.56 1.024 0 2.048-0.512 3.072-0.512 4.096-1.024 8.192-2.048 11.776-3.072 4.096-1.024 7.68-2.56 11.264-4.096 1.024-0.512 1.536-0.512 2.56-1.024 3.584-1.536 7.68-3.072 11.264-5.12 1.024 3.072 3.072 6.144 4.608 9.216 1.024 1.536 2.048 2.56 2.56 4.096l0.512 0.512c1.024 1.536 2.56 2.56 3.584 4.096l62.976 62.976c20.48 20.48 54.272 20.48 74.752 0l20.992-20.992c21.504-19.968 21.504-53.248 1.024-73.728z m-158.72-43.008c-19.456 17.92-44.544 30.208-72.704 34.304-76.288 11.776-147.456-40.448-159.232-116.224-11.776-75.776 40.448-146.432 116.736-158.208 76.288-11.776 147.456 40.448 159.232 116.224 6.656 43.52-7.68 85.504-35.84 115.2L849.92 870.4z m130.56 109.568c-10.752 10.752-28.16 10.752-38.4 0l-62.464-62.464c-10.752-10.752-10.752-27.648 0-38.4 10.752-10.752 28.16-10.752 38.4 0l62.464 62.464c10.752 10.24 10.752 27.648 0 38.4z m-152.576-294.4s-18.944-19.968-61.952-22.528c-56.832-3.072-96.768 27.136-89.6 48.128 11.264 31.232 36.864 0.512 76.288-3.584 56.32-6.144 65.536 53.76 89.6 26.624 12.8-14.336 4.608-31.232-14.336-48.64z" p-id="7762" fill="#f4ea2a"></path></svg>